#!OML:ASF E:\emotionWalksFemale\Project 1\Capture day 1\Session 1\Female1.ASF
:FULLY-SPECIFIED
:DEGREES
60
root 7.90014 14.9952 42.0362 178.248 -20.0186 -179.051
lowerback 7.94525 2.67809 1.17719
upperback -3.51715 3.71577 0.267094
thorax -8.11297 1.74716 -0.925809
lowerneck -4.3432 13.4541 7.17005
upperneck 14.5187 17.5762 -1.82523
head 5.91207 8.72052 -0.460824
rclavicle 4.50721e-014 1.06226e-014
rhumerus -50.1101 12.9919 -96.6882
rradius 33.9792
rwrist 13.9186
rhand -9.05229 -54.4431
rfingers 7.12502
rthumb 16.8961 -83.7281
lclavicle 4.50721e-014 1.06226e-014
lhumerus -41.5725 1.1298 84.2717
lradius 34.114
lwrist -13.5633
lhand -7.03867 -33.9602
lfingers 7.12502
lthumb 18.8336 -4.85196
rfemur -3.51647 4.11566 24.9369
rtibia 30.1179
rfoot -28.7194 -32.1668
rtoes 6.77134
lfemur -11.7116 -24.2242 -23.0751
ltibia 34.6637
lfoot -25.9644 3.27764
ltoes -36.9079
61
root 7.90052 14.9962 42.0365 178.246 -20.072 -179.035
lowerback 7.96521 2.64197 1.1973
upperback -3.5164 3.67046 0.273038
thorax -8.12378 1.72398 -0.925207
lowerneck -4.3138 13.4801 7.13377
upperneck 14.4565 17.6173 -1.82732
head 5.88613 8.74008 -0.457741
rclavicle 3.61625e-014 -4.13721e-015
rhumerus -50.0611 12.8953 -96.5806
rradius 33.9518
rwrist 14.2325
rhand -8.70342 -54.5093
rfingers 7.12502
rthumb 17.2319 -83.7653
lclavicle 3.61625e-014 -4.13721e-015
lhumerus -41.5825 0.992562 84.4447
lradius 34.1469
lwrist -13.8342
lhand -7.78703 -33.3436
lfingers 7.12502
lthumb 18.1137 -4.16707
rfemur -3.5165 4.09746 24.95
rtibia 30.088
rfoot -28.7025 -32.298
rtoes 6.90705
lfemur -11.7137 -24.5161 -23.0788
ltibia 34.6854
lfoot -25.9152 3.42539
ltoes -35.1699
62
root 7.90028 14.9963 42.0359 178.261 -20.0828 -179.034
lowerback 7.9737 2.63821 1.21946
upperback -3.52549 3.6657 0.239206
thorax -8.13491 1.7193 -0.97318
lowerneck -4.38081 13.4977 7.1664
upperneck 14.5011 17.6282 -1.78201
head 5.91079 8.74892 -0.440956
rclavicle -7.03511e-015 1.26725e-015
rhumerus -50.045 12.7447 -96.5124
rradius 33.9601
rwrist 14.6356
rhand -8.27932 -54.7244
rfingers 7.12502
rthumb 17.6401 -83.9442
lclavicle -7.03511e-015 1.26725e-015
lhumerus -41.6115 0.91602 84.4128
lradius 34.1631
lwrist -13.8791
lhand -8.00224 -33.5025
lfingers 7.12502
lthumb 17.9067 -4.30691
rfemur -3.52881 4.09786 24.943
rtibia 30.0726
rfoot -28.7174 -32.3534
rtoes 6.43619
lfemur -11.7649 -24.3359 -23.0471
ltibia 34.696
lfoot -25.8723 3.1749
ltoes -35.9898
63
root 7.89885 14.9969 42.036 178.306 -20.0544 -179.054
lowerback 7.95128 2.64407 1.21568
upperback -3.53763 3.6709 0.216058
thorax -8.1335 1.72125 -0.99534
lowerneck -4.38807 13.5159 7.25093
upperneck 14.5433 17.6495 -1.81727
head 5.93745 8.76016 -0.457747
rclavicle -6.91212e-014 -1.30825e-014
rhumerus -50.0502 12.8516 -96.6487
rradius 33.9428
rwrist 14.3351
rhand -8.45266 -54.8677
rfingers 7.12502
rthumb 17.4732 -84.1024
lclavicle -6.91212e-014 -1.30825e-014
lhumerus -41.5931 0.893775 84.3874
lradius 34.1538
lwrist -13.734
lhand -7.72681 -33.462
lfingers 7.12502
lthumb 18.1717 -4.29084
rfemur -3.56817 4.00619 24.9042
rtibia 30.0721
rfoot -28.5866 -32.3116
rtoes 5.95356
lfemur -11.8111 -24.1169 -23.033
ltibia 34.6958
lfoot -25.9913 2.92271
ltoes -34.6689
64
root 7.89754 14.9976 42.0372 178.329 -20.0481 -179.056
lowerback 7.94893 2.62899 1.20787
upperback -3.54677 3.65131 0.240319
thorax -8.14453 1.71244 -0.962762
lowerneck -4.29691 13.5319 7.25974
upperneck 14.4888 17.6879 -1.90485
head 5.9156 8.77484 -0.489768
rclavicle -6.25457e-014 -1.03989e-014
rhumerus -50.0665 13.0842 -96.7878
rradius 33.8984
rwrist 13.8968
rhand -8.78591 -54.8016
rfingers 7.12502
rthumb 17.1525 -84.0645
lclavicle -6.25457e-014 -1.03989e-014
lhumerus -41.6415 0.848506 84.4525
lradius 34.378
lwrist -13.2213
lhand -7.0193 -33.2633
lfingers 7.12502
lthumb 18.8523 -4.1569
rfemur -3.60649 3.96768 24.8958
rtibia 30.0961
rfoot -28.4618 -32.3804
rtoes 5.8033
lfemur -11.8253 -24.0802 -23.0318
ltibia 34.6817
lfoot -26.061 2.95917
ltoes -36.3622
65
root 7.89787 14.996 42.0364 178.29 -20.0711 -179.057
lowerback 7.98912 2.62119 1.18842
upperback -3.53414 3.64012 0.246129
thorax -8.15614 1.70823 -0.945958
lowerneck -4.30234 13.5282 7.26079
upperneck 14.4859 17.684 -1.91438
head 5.91638 8.77242 -0.492721
rclavicle -5.07126e-014 -3.22404e-015
rhumerus -50.0243 12.9911 -96.7
rradius 33.8936
rwrist 14.187
rhand -8.56856 -54.7963
rfingers 7.12502
rthumb 17.3617 -84.0409
lclavicle -5.07126e-014 -3.22404e-015
lhumerus -41.6154 0.94999 84.4284
lradius 34.2237
lwrist -13.5589
lhand -7.40341 -33.2635
lfingers 7.12502
lthumb 18.4828 -4.12153
rfemur -3.56513 4.03994 24.9133
rtibia 30.1269
rfoot -28.5762 -32.4296
rtoes 5.94694
lfemur -11.785 -24.0224 -23.0526
ltibia 34.6637
lfoot -25.9365 3.10579
ltoes -36.9089
66
root 7.89776 14.9948 42.0349 178.274 -20.0858 -179.032
lowerback 7.97515 2.62078 1.21239
upperback -3.51015 3.64163 0.237636
thorax -8.12003 1.70834 -0.966989
lowerneck -4.35674 13.5327 7.32922
upperneck 14.4848 17.693 -1.99023
head 5.93875 8.77489 -0.518514
rclavicle -5.88865e-014 -5.40756e-015
rhumerus -49.8825 12.7106 -96.526
rradius 33.8438
rwrist 14.6724
rhand -8.34642 -54.7903
rfingers 7.12502
rthumb 17.5755 -84.0159
lclavicle -5.88865e-014 -5.40756e-015
lhumerus -41.6025 0.782779 84.4824
lradius 34.2616
lwrist -13.2891
lhand -7.22644 -33.1225
lfingers 7.12502
lthumb 18.653 -3.99683
rfemur -3.54959 4.09284 24.948
rtibia 30.1552
rfoot -28.8002 -32.3762
rtoes 6.35646
lfemur -11.7646 -24.0482 -23.0316
ltibia 34.6463
lfoot -25.8485 3.15247
ltoes -36.9773
67
root 7.89768 14.9973 42.0342 178.298 -20.087 -179.023
lowerback 7.95981 2.61574 1.21266
upperback -3.50851 3.6349 0.242136
thorax -8.10975 1.70532 -0.960555
lowerneck -4.32258 13.5375 7.41096
upperneck 14.4031 17.7177 -2.14689
head 5.93022 8.78239 -0.577786
rclavicle 7.99875e-014 1.19581e-014
rhumerus -49.944 12.7543 -96.5766
rradius 33.8867
rwrist 14.5472
rhand -8.7672 -54.7279
rfingers 7.12502
rthumb 17.1705 -83.9893
lclavicle 7.99875e-014 1.19581e-014
lhumerus -41.5756 1.11639 84.282
lradius 34.0838
lwrist -13.4609
lhand -6.9772 -33.6593
lfingers 7.12502
lthumb 18.8927 -4.55677
rfemur -3.54838 4.09975 24.963
rtibia 30.1314
rfoot -28.8912 -32.1893
rtoes 6.85115
lfemur -11.7992 -24.0894 -23.0043
ltibia 34.6651
lfoot -25.9135 3.0509
ltoes -36.9467
68
root 7.89887 14.9971 42.0329 178.334 -20.0893 -179.123
lowerback 7.97849 2.60953 1.08089
upperback -3.51432 3.61152 0.233331
thorax -8.13489 1.70033 -0.894175
lowerneck -4.22428 13.5419 7.40551
upperneck 14.2786 17.7405 -2.22139
head 5.88182 8.79154 -0.608784
rclavicle 1.63287e-014 3.59676e-015
rhumerus -50.1423 12.9843 -96.7119
rradius 34.0241
rwrist 14.2373
rhand -9.11223 -54.6698
rfingers 7.12502
rthumb 16.8384 -83.9598
lclavicle 1.63287e-014 3.59676e-015
lhumerus -41.6319 1.29674 84.1623
lradius 34.0046
lwrist -13.7837
lhand -6.93703 -34.2947
lfingers 7.12502
lthumb 18.9314 -5.19601
rfemur -3.5464 4.13877 24.8775
rtibia 30.1372
rfoot -28.9454 -32.0596
rtoes 7.36321
lfemur -11.8026 -24.1374 -23.0979
ltibia 34.6598
lfoot -25.954 2.99013
ltoes -36.0509
69
root 7.89842 14.9936 42.0328 178.15 -20.084 -178.964
lowerback 8.15095 2.59121 1.24301
upperback -3.47461 3.61353 0.292291
thorax -8.18641 1.69403 -0.930695
lowerneck -4.27834 13.5641 7.27121
upperneck 14.25 17.7718 -2.15518
head 5.86462 8.80489 -0.56682
rclavicle -2.53683e-014 -3.68994e-015
rhumerus -50.0891 13.0586 -96.717
rradius 33.9454
rwrist 14.1994
rhand -9.05142 -54.5632
rfingers 7.12502
rthumb 16.8969 -83.8481
lclavicle -2.53683e-014 -3.68994e-015
lhumerus -41.6742 1.11091 84.3698
lradius 34.2777
lwrist -13.77
lhand -7.0535 -33.66
lfingers 7.12502
lthumb 18.8194 -4.55034
rfemur -3.41566 4.15503 25.0494
rtibia 30.1539
rfoot -28.9927 -32.1974
rtoes 7.05041
lfemur -11.6396 -24.2074 -23.0053
ltibia 34.6532
lfoot -25.987 2.97787
ltoes -34.8399
70
root 7.89803 14.9942 42.0334 178.245 -20.1067 -179.115
lowerback 8.17644 2.61004 1.11686
upperback -3.4728 3.62095 0.234493
thorax -8.20305 1.70276 -0.923658
lowerneck -4.5081 13.5616 7.19991
upperneck 14.3508 17.7497 -2.04614
head 5.91691 8.79452 -0.507053
rclavicle 3.71657e-014 1.42876e-015
rhumerus -49.9361 12.9624 -96.6744
rradius 33.8007
rwrist 14.3023
rhand -8.91927 -54.566
rfingers 7.12502
rthumb 17.0242 -83.84
lclavicle 3.71657e-014 1.42876e-015
lhumerus -41.6075 0.946793 84.3936
lradius 34.1558
lwrist -13.4605
lhand -6.95324 -34.0564
lfingers 7.12502
lthumb 18.9158 -4.95613
rfemur -3.49367 4.06434 24.8706
rtibia 30.202
rfoot -28.838 -32.3467
rtoes 6.09177
lfemur -11.6739 -24.2054 -23.1431
ltibia 34.6217
lfoot -25.9871 2.90366
ltoes -35.6441
71
root 7.89809 14.9941 42.0336 178.353 -20.1619 -179.246
lowerback 8.14251 2.61162 0.992638
upperback -3.50026 3.60346 0.171688
thorax -8.21671 1.69868 -0.916988
lowerneck -4.55249 13.5437 7.31212
upperneck 14.4206 17.7154 -2.06958
head 5.95744 8.7801 -0.525125
rclavicle 4.18053e-014 4.2397e-015
rhumerus -49.8982 12.7573 -96.5131
rradius 33.8438
rwrist 14.8939
rhand -7.89571 -54.8616
rfingers 7.12502
rthumb 18.0092 -84.0478
lclavicle 4.18053e-014 4.2397e-015
lhumerus -41.6867 1.06519 84.2399
lradius 34.2471
lwrist -13.5001
lhand -6.68543 -34.2674
lfingers 7.12502
lthumb 19.1733 -5.19249
rfemur -3.57233 3.96549 24.7242
rtibia 30.2327
rfoot -28.7336 -32.3701
rtoes 6.09035
lfemur -11.7448 -24.1807 -23.2393
ltibia 34.6072
lfoot -25.9691 2.82744
ltoes -36.2241
72
root 7.89757 14.9943 42.0332 178.354 -20.1922 -179.187
lowerback 8.09924 2.58553 1.04395
upperback -3.54231 3.57307 0.172501
thorax -8.23432 1.68024 -0.939184
lowerneck -4.34885 13.5342 7.50957
upperneck 14.3735 17.7124 -2.20959
head 5.93981 8.78117 -0.608093
rclavicle -2.54576e-014 -2.26739e-015
rhumerus -50.1291 13.047 -96.8404
rradius 33.9486
rwrist 14.0214
rhand -8.75032 -54.7725
rfingers 7.12502
rthumb 17.1868 -84.0324
lclavicle -2.54576e-014 -2.26739e-015
lhumerus -41.6685 0.933691 84.3466
lradius 34.3016
lwrist -13.5518
lhand -6.85761 -33.3359
lfingers 7.12502
lthumb 19.0078 -4.24468
rfemur -3.59574 3.99352 24.7885
rtibia 30.2468
rfoot -28.8869 -32.3396
rtoes 6.64473
lfemur -11.7718 -24.1785 -23.17
ltibia 34.6078
lfoot -25.9483 2.85928
ltoes -35.6362
73
root 7.89705 14.9942 42.033 178.341 -20.178 -179.129
lowerback 8.10136 2.61183 1.15338
upperback -3.54736 3.61927 0.150978
thorax -8.23194 1.69621 -1.02993
lowerneck -4.35638 13.502 7.50143
upperneck 14.346 17.6676 -2.20084
head 5.92856 8.76013 -0.609167
rclavicle -2.36461e-014 3.13086e-015
rhumerus -50.1944 13.0614 -96.921
rradius 34.0026
rwrist 13.9085
rhand -8.5971 -54.9558
rfingers 7.12502
rthumb 17.3342 -84.2028
lclavicle -2.36461e-014 3.13086e-015
lhumerus -41.8725 0.719552 84.4643
lradius 34.5195
lwrist -13.3656
lhand -7.13294 -33.1302
lfingers 7.12502
lthumb 18.743 -4.01319
rfemur -3.57758 4.06219 24.8513
rtibia 30.1829
rfoot -28.9406 -32.3008
rtoes 7.00044
lfemur -11.8132 -24.1647 -23.1083
ltibia 34.6645
lfoot -25.9779 2.9013
ltoes -36.6105
